<?xml version="1.0" encoding="UTF-8"?>
<svg xmlns="http://www.w3.org/2000/svg" xmlns:xlink="http://www.w3.org/1999/xlink" width="130pt" height="121pt" viewBox="0 0 130 121" version="1.1">
<defs>
<filter id="alpha" filterUnits="objectBoundingBox" x="0%" y="0%" width="100%" height="100%">
  <feColorMatrix type="matrix" in="SourceGraphic" values="0 0 0 0 1 0 0 0 0 1 0 0 0 0 1 0 0 0 1 0"/>
</filter>
<mask id="mask0">
  <g filter="url(#alpha)">
<rect x="0" y="0" width="130" height="121" style="fill:rgb(0%,0%,0%);fill-opacity:0.101961;stroke:none;"/>
  </g>
</mask>
<clipPath id="clip1">
  <rect x="0" y="0" width="130" height="121"/>
</clipPath>
<g id="surface5" clip-path="url(#clip1)">
<path style=" stroke:none;fill-rule:nonzero;fill:rgb(0%,0%,0%);fill-opacity:1;" d="M 67.015625 24.203125 L 30.234375 24.203125 L 30.234375 99.820312 L 67.015625 99.820312 C 70.074219 99.808594 72.546875 97.332031 72.558594 94.277344 L 72.558594 29.75 C 72.546875 26.691406 70.074219 24.214844 67.015625 24.203125 Z M 67.015625 24.203125 "/>
</g>
<mask id="mask1">
  <g filter="url(#alpha)">
<rect x="0" y="0" width="130" height="121" style="fill:rgb(0%,0%,0%);fill-opacity:0.2;stroke:none;"/>
  </g>
</mask>
<clipPath id="clip2">
  <rect x="0" y="0" width="130" height="121"/>
</clipPath>
<g id="surface8" clip-path="url(#clip2)">
<path style=" stroke:none;fill-rule:nonzero;fill:rgb(0%,0%,0%);fill-opacity:1;" d="M 63.992188 27.230469 L 30.234375 27.230469 L 30.234375 102.84375 L 63.992188 102.84375 C 67.050781 102.835938 69.523438 100.359375 69.535156 97.300781 L 69.535156 32.773438 C 69.523438 29.714844 67.050781 27.238281 63.992188 27.230469 Z M 63.992188 27.230469 "/>
</g>
<mask id="mask2">
  <g filter="url(#alpha)">
<rect x="0" y="0" width="130" height="121" style="fill:rgb(0%,0%,0%);fill-opacity:0.2;stroke:none;"/>
  </g>
</mask>
<clipPath id="clip3">
  <rect x="0" y="0" width="130" height="121"/>
</clipPath>
<g id="surface11" clip-path="url(#clip3)">
<path style=" stroke:none;fill-rule:nonzero;fill:rgb(0%,0%,0%);fill-opacity:1;" d="M 63.992188 27.230469 L 30.234375 27.230469 L 30.234375 96.796875 L 63.992188 96.796875 C 67.050781 96.785156 69.523438 94.308594 69.535156 91.25 L 69.535156 32.773438 C 69.523438 29.714844 67.050781 27.238281 63.992188 27.230469 Z M 63.992188 27.230469 "/>
</g>
<mask id="mask3">
  <g filter="url(#alpha)">
<rect x="0" y="0" width="130" height="121" style="fill:rgb(0%,0%,0%);fill-opacity:0.2;stroke:none;"/>
  </g>
</mask>
<clipPath id="clip4">
  <rect x="0" y="0" width="130" height="121"/>
</clipPath>
<g id="surface14" clip-path="url(#clip4)">
<path style=" stroke:none;fill-rule:nonzero;fill:rgb(0%,0%,0%);fill-opacity:1;" d="M 60.96875 27.230469 L 30.234375 27.230469 L 30.234375 96.796875 L 60.96875 96.796875 C 64.027344 96.785156 66.5 94.308594 66.511719 91.25 L 66.511719 32.773438 C 66.5 29.714844 64.027344 27.238281 60.96875 27.230469 Z M 60.96875 27.230469 "/>
</g>
<linearGradient id="linear0" gradientUnits="userSpaceOnUse" x1="167.2057" y1="1420.9117" x2="795.2943" y2="333.0883" gradientTransform="matrix(0.069103,0,0,-0.0691337,0,121.130227)">
<stop offset="0" style="stop-color:rgb(13.72549%,40.784314%,76.862745%);stop-opacity:1;"/>
<stop offset="0.5" style="stop-color:rgb(10.196078%,36.470588%,74.509804%);stop-opacity:1;"/>
<stop offset="1" style="stop-color:rgb(6.666667%,27.45098%,67.45098%);stop-opacity:1;"/>
</linearGradient>
</defs>
<g id="surface1">
<path style=" stroke:none;fill-rule:nonzero;fill:rgb(25.490196%,64.705882%,93.333333%);fill-opacity:1;" d="M 124.457031 0.0078125 L 35.773438 0.0078125 C 32.714844 0.0078125 30.234375 2.488281 30.234375 5.550781 L 30.234375 30.253906 L 81.628906 45.378906 L 130 30.253906 L 130 5.550781 C 130 2.488281 127.519531 0.0078125 124.457031 0.0078125 Z M 124.457031 0.0078125 "/>
<path style=" stroke:none;fill-rule:nonzero;fill:rgb(16.862745%,48.627451%,82.745098%);fill-opacity:1;" d="M 130 30.253906 L 30.234375 30.253906 L 30.234375 60.5 L 81.628906 69.574219 L 130 60.5 Z M 130 30.253906 "/>
<path style=" stroke:none;fill-rule:nonzero;fill:rgb(9.411765%,35.294118%,74.117647%);fill-opacity:1;" d="M 30.234375 60.5 L 30.234375 90.746094 L 78.605469 96.796875 L 130 90.746094 L 130 60.5 Z M 30.234375 60.5 "/>
<path style=" stroke:none;fill-rule:nonzero;fill:rgb(6.27451%,24.705882%,56.862745%);fill-opacity:1;" d="M 35.773438 120.992188 L 124.457031 120.992188 C 127.519531 120.992188 130 118.511719 130 115.449219 L 130 90.746094 L 30.234375 90.746094 L 30.234375 115.449219 C 30.234375 118.511719 32.714844 120.992188 35.773438 120.992188 Z M 35.773438 120.992188 "/>
<use xlink:href="#surface5" mask="url(#mask0)"/>
<use xlink:href="#surface8" mask="url(#mask1)"/>
<use xlink:href="#surface11" mask="url(#mask2)"/>
<use xlink:href="#surface14" mask="url(#mask3)"/>
<path style=" stroke:none;fill-rule:nonzero;fill:url(#linear0);" d="M 5.542969 27.230469 L 60.96875 27.230469 C 64.03125 27.230469 66.511719 29.710938 66.511719 32.773438 L 66.511719 88.226562 C 66.511719 91.289062 64.03125 93.769531 60.96875 93.769531 L 5.542969 93.769531 C 2.480469 93.769531 0 91.289062 0 88.226562 L 0 32.773438 C 0 29.710938 2.480469 27.230469 5.542969 27.230469 Z M 5.542969 27.230469 "/>
<path style=" stroke:none;fill-rule:nonzero;fill:rgb(100%,100%,100%);fill-opacity:1;" d="M 22.742188 69.75 C 22.851562 70.605469 22.921875 71.347656 22.957031 71.988281 L 23.082031 71.988281 C 23.132812 71.382812 23.230469 70.652344 23.386719 69.800781 C 23.539062 68.949219 23.675781 68.226562 23.800781 67.636719 L 29.628906 42.480469 L 37.164062 42.480469 L 43.210938 67.261719 C 43.5625 68.800781 43.8125 70.363281 43.964844 71.9375 L 44.0625 71.9375 C 44.175781 70.410156 44.386719 68.898438 44.691406 67.398438 L 49.515625 42.46875 L 56.375 42.46875 L 47.902344 78.519531 L 39.890625 78.519531 L 34.144531 54.644531 C 33.976562 53.957031 33.789062 53.058594 33.578125 51.957031 C 33.371094 50.851562 33.242188 50.042969 33.1875 49.535156 L 33.089844 49.535156 C 33.023438 50.121094 32.894531 50.992188 32.699219 52.148438 C 32.507812 53.304688 32.351562 54.160156 32.234375 54.714844 L 26.835938 78.515625 L 18.683594 78.515625 L 10.167969 42.480469 L 17.152344 42.480469 L 22.402344 67.6875 C 22.519531 68.207031 22.632812 68.894531 22.742188 69.75 Z M 22.742188 69.75 "/>
</g>
</svg>
